<?xml version="1.0" encoding="UTF-8"?>
<svg width="99px" height="99px" viewBox="0 0 99 99" version="1.1" xmlns="http://www.w3.org/2000/svg" xmlns:xlink="http://www.w3.org/1999/xlink">
    <!-- Generator: Sketch 50.2 (55047) - http://www.bohemiancoding.com/sketch -->
    <title>icon-mask</title>
    <desc>Created with Sketch.</desc>
    <defs>
        <linearGradient x1="0%" y1="0%" x2="96.4486874%" y2="75.6778799%" id="linearGradient-1">
            <stop stop-color="#3023AE" offset="0%"></stop>
            <stop stop-color="#C86DD7" offset="100%"></stop>
        </linearGradient>
        <linearGradient x1="50%" y1="0%" x2="50%" y2="100%" id="linearGradient-2">
            <stop stop-color="#FAD961" offset="0%"></stop>
            <stop stop-color="#F76B1C" offset="100%"></stop>
        </linearGradient>
        <linearGradient x1="50%" y1="0%" x2="50%" y2="100%" id="linearGradient-3">
            <stop stop-color="#B4EC51" offset="0%"></stop>
            <stop stop-color="#429321" offset="100%"></stop>
        </linearGradient>
    </defs>
    <g id="Page-1" stroke="none" stroke-width="1" fill="none" fill-rule="evenodd">
        <g id="icon-mask">
            <path d="M25.08,15.648 C24.602,15.17 23.945,14.906 23.275,14.925 C22.6,14.942 21.961,15.234 21.507,15.733 C6.678,32.058 14.745,67.356 15.591,70.848 L0.723,85.717 C0.26,86.18 0,86.808 0,87.463 C0,88.117 0.26,88.746 0.723,89.209 L9.681,98.166 C10.163,98.646 10.795,98.889 11.427,98.889 C12.058,98.889 12.691,98.649 13.172,98.166 L28.037,83.302 C35.274,85.161 44.326,86.27 52.317,86.27 C61.916,86.27 75.056,84.727 83.153,77.384 C83.653,76.93 83.946,76.291 83.962,75.615 C83.98,74.939 83.717,74.287 83.239,73.81 L25.08,15.648 Z" id="Shape" fill="url(#linearGradient-1)" fill-rule="nonzero"></path>
            <path d="M46.557,30.345 C47.039,30.827 47.671,31.068 48.303,31.068 C48.935,31.068 49.567,30.827 50.049,30.344 L68.477,11.916 C69.782,10.611 70.5,8.876 70.5,7.031 C70.5,5.185 69.781,3.449 68.477,2.145 C67.172,0.84 65.438,0.123 63.592,0.123 C61.747,0.123 60.011,0.841 58.705,2.145 L40.277,20.574 C39.313,21.538 39.313,23.101 40.277,24.066 L46.557,30.345 Z" id="Shape" fill="url(#linearGradient-2)" fill-rule="nonzero"></path>
            <path d="M96.99,30.661 C95.685,29.356 93.951,28.637 92.105,28.637 C90.258,28.637 88.523,29.355 87.219,30.66 L68.79,49.089 C68.326,49.552 68.066,50.18 68.066,50.835 C68.066,51.49 68.326,52.117 68.79,52.581 L75.07,58.859 C75.551,59.341 76.183,59.583 76.816,59.583 C77.447,59.583 78.08,59.342 78.562,58.859 L96.992,40.43 C99.686,37.735 99.686,33.353 96.99,30.661 Z" id="Shape" fill="url(#linearGradient-3)" fill-rule="nonzero"></path>
            <text id="Color-Mixer" font-family="HelveticaNeue-Bold, Helvetica Neue" font-size="14" font-weight="bold" line-spacing="13" letter-spacing="-0.441919178" fill="#FFFFFF">
                <tspan x="18" y="60">Color</tspan>
                <tspan x="18" y="73" letter-spacing="-0.386679292">  Mixer</tspan>
            </text>
        </g>
    </g>
</svg>