<!-- Generator: Adobe Illustrator 24.2.1, SVG Export Plug-In  -->
<svg version="1.1" xmlns="http://www.w3.org/2000/svg" xmlns:xlink="http://www.w3.org/1999/xlink" x="0px" y="0px" width="544.2px"
     height="544.2px" viewBox="0 0 544.2 544.2" style="overflow:visible;enable-background:new 0 0 544.2 544.2;"
     xml:space="preserve">
<defs>
</defs>
<g>
    <g>
        <path style="fill:#3F5D77;" d="M272.1,0C2.1,0,0,121.8,0,272.1s2.1,272.1,272.1,272.1s272.1-121.8,272.1-272.1S542.1,0,272.1,0z"
            />
    </g>
    <g>
        <path style="fill:#FFFFFF;" d="M154.8,244.8c0,3.7,0,6.5,0,9.2c0,45.4,0.1,90.8-0.1,136.2c-0.1,14.4,5.6,25.7,17.4,33.4
            c6.7,4.4,14,8.5,21.5,11.2c39.4,14.1,79.9,15.8,120.9,9.4c19.4-3,38.4-7.8,55.2-18.7c13.2-8.5,20-20.2,19.8-36.5
            c-0.4-45.1-0.1-90.3-0.1-135.4c0-2.6,0-5.3,0-8.7c-5.9,3.3-10.6,6.2-15.6,8.7c-8.6,4.4-12.7,11.2-12.5,21c0.3,12.3,0.2,24.7,0,37
            c-0.3,13.3-8,21.6-19.6,21.5c-11.2-0.1-18.7-8.1-19.2-21.1c-0.3-7.8,0-15.7-0.1-23.5c-0.1-6.2-3.4-10-9.5-10.9
            c-6.1-0.8-10.4,2-12.4,7.7c-1,2.8-1,6-1,9.1c-0.1,30.6,0,61.1-0.1,91.7c0,11.4-8.8,18.1-18.1,13.8c-6.1-2.8-7.9-8.1-7.9-14.5
            c0.1-21.9,0.2-43.7-0.1-65.6c-0.1-10.8-8.3-19.1-18.9-20.2c-9.2-1-19.2,5.7-21.7,15.1c-0.9,3.4-0.8,7.2-0.9,10.8
            c-0.6,16.1-11.5,27.8-25.7,27.6c-14.5-0.1-25.1-11.8-25.2-27.9c-0.1-17.4-0.1-34.8,0-52.1c0-7.6-2.6-13.8-8.8-18.1
            C166.9,251.5,161.2,248.6,154.8,244.8z"/>
        <path style="fill:#FFFFFF;" d="M154.8,244.8c6.4,3.7,12.1,6.6,17.3,10.2c6.2,4.2,8.8,10.5,8.8,18.1c-0.1,17.4-0.1,34.8,0,52.1
            c0.1,16.1,10.7,27.8,25.2,27.9c14.3,0.1,25.1-11.6,25.7-27.6c0.1-3.6,0-7.4,0.9-10.8c2.5-9.4,12.5-16.1,21.7-15.1
            c10.5,1.1,18.7,9.5,18.9,20.2c0.3,21.9,0.2,43.7,0.1,65.6c0,6.4,1.8,11.8,7.9,14.5c9.3,4.3,18.1-2.4,18.1-13.8
            c0.1-30.6,0-61.1,0.1-91.7c0-3,0.1-6.2,1-9.1c2-5.7,6.3-8.6,12.4-7.7c6.1,0.8,9.4,4.6,9.5,10.9c0.1,7.8-0.1,15.7,0.1,23.5
            c0.5,12.9,8,21,19.2,21.1c11.6,0.1,19.3-8.2,19.6-21.5c0.2-12.3,0.3-24.7,0-37c-0.2-9.8,3.9-16.5,12.5-21
            c4.9-2.6,9.7-5.4,15.6-8.7c0,3.4,0,6.1,0,8.7c0,45.1-0.2,90.3,0.1,135.4c0.1,16.2-6.6,27.9-19.8,36.5
            c-16.8,10.9-35.8,15.7-55.2,18.7c-41,6.4-81.5,4.7-120.9-9.4c-7.5-2.7-14.8-6.7-21.5-11.2c-11.8-7.8-17.5-19-17.4-33.4
            c0.2-45.4,0.1-90.8,0.1-136.2C154.8,251.3,154.8,248.6,154.8,244.8z"/>
        <path style="fill:#FFFFFF;" d="M271.5,255.5c-26.2-0.4-52-2.9-77.1-10.5c-4.3-1.3-8.5-2.9-12.6-4.7
            c-26.4-11.8-29.5-22.9-25.3-46.7c9.9-56.2,59.7-98.1,116.1-97.2c59.3,0.9,106.8,43.5,115.7,101.6c3.3,21.7-6.9,33.2-21.8,40.5
            c-18.4,9-38.2,12.4-58.3,14.6C296.1,254.4,283.8,254.8,271.5,255.5z M369.9,189.6c-7.4-37.2-46.6-80.1-101.2-80.1
            s-90.7,49.7-93.9,79.9c28.9-11.1,66.4-21.8,96.6-21.8C302.1,167.5,339.9,178,369.9,189.6z M347,225
            c-31.8-18.9-125.7-17.2-148.8,0.3C247.7,238.5,296.4,238.5,347,225z"/>
    </g>
</g>
</svg>
